<?xml version="1.0" encoding="UTF-8" standalone="no"?>
<svg width="100px" height="100px" viewBox="0 0 100 100" version="1.1" xmlns="http://www.w3.org/2000/svg" xmlns:xlink="http://www.w3.org/1999/xlink">
    <!-- Generator: Sketch 39.1 (31720) - http://www.bohemiancoding.com/sketch -->
    <title>Artboard 3 Copy</title>
    <desc>Created with Sketch.</desc>
    <defs></defs>
    <g id="Page-1" stroke="none" stroke-width="1" fill="none" fill-rule="evenodd">
        <g id="Artboard-3-Copy" fill="#03CEA4">
            <g id="draw" transform="translate(23.000000, 20.000000)">
                <g id="Capa_1">
                    <g id="Group">
                        <path d="M28.0936864,17.8015102 L22.2892057,23.6178367 C20.1507128,25.7606939 18,27.903551 15.8737271,30.070898 C15.3727088,30.5851837 14.99389,31.270898 14.8472505,31.9443673 C14.0773931,35.4831429 13.3319756,39.0219184 12.586558,42.5606939 L12.1710794,44.5198776 C11.9755601,45.4749796 12.2321792,46.4300816 12.8798371,47.0790612 C13.3808554,47.581102 14.0773931,47.8627347 14.8105906,47.8627347 C15.0183299,47.8627347 15.2260692,47.8382449 15.4338086,47.8015102 L17.5845214,47.348449 C21.00611,46.626 24.4399185,45.8913061 27.8615071,45.181102 C28.6558045,45.0096735 29.3279022,44.6545714 29.9022403,44.0790612 C39.5071283,34.4423265 49.1120163,24.8178367 58.7169043,15.2055918 C59.4256619,14.4953878 59.8167006,13.6504898 59.9144603,12.6096735 C59.9266802,12.4382449 59.9144603,12.2668163 59.8778004,12.1076327 C59.8167006,11.8627347 59.7678208,11.6055918 59.706721,11.3606939 C59.5723014,10.7362041 59.4256619,10.026 59.1323829,9.34028571 L59.1323829,9.34028571 C57.3360489,5.226 54.3543788,2.28722449 50.2729124,0.634163265 C49.4541752,0.30355102 48.586558,0.193346939 47.8289206,0.0953877551 L47.6211813,0.0708979592 C46.5213849,-0.0637959184 45.5193483,0.30355102 44.6517312,1.18518367 C39.1527495,6.71987755 33.6171079,12.2668163 28.0936864,17.8015102 L28.0936864,17.8015102 Z M47.2179226,3.02191837 L47.2790224,3.02191837 L47.4867617,3.04640816 C48.1221996,3.11987755 48.7087576,3.19334694 49.1731161,3.38926531 C52.496945,4.73620408 54.9409369,7.13620408 56.4195519,10.5157959 C56.5906314,10.9076327 56.700611,11.4096735 56.8105906,11.9362041 C56.8472505,12.1321224 56.8961303,12.3280408 56.9327902,12.5239592 C56.8839104,12.7443673 56.7983707,12.8913061 56.6272912,13.0504898 C47.0101833,22.6627347 37.4052953,32.2994694 27.8004073,41.9239592 C27.6415479,42.0831429 27.4949084,42.1566122 27.2749491,42.2055918 C23.8411405,42.9280408 20.4195519,43.6504898 16.9857434,44.3729388 L15.1771894,44.7525306 L15.5193483,43.148449 C16.2647658,39.6219184 17.0101833,36.0831429 17.7678208,32.5566122 C17.7922607,32.4464082 17.8900204,32.2749796 18,32.1525306 C20.1262729,29.9974286 22.2525458,27.8545714 24.3910387,25.7239592 L30.1955193,19.9076327 C35.7311609,14.3606939 41.2668024,8.8137551 46.790224,3.25457143 C47.0224033,3.05865306 47.1323829,3.02191837 47.2179226,3.02191837 L47.2179226,3.02191837 Z" id="Shape"></path>
                        <path d="M4.75356415,13.3933469 L26.089613,13.3933469 C26.9205703,13.3933469 27.592668,12.7198776 27.592668,11.8872245 C27.592668,11.0545714 26.9205703,10.381102 26.089613,10.381102 L4.75356415,10.381102 C2.12627291,10.381102 0,12.5239592 0,15.1443673 L0,55.2341633 C0,57.8668163 2.13849287,59.9974286 4.75356415,59.9974286 L44.7494908,59.9974286 C47.3767821,59.9974286 49.503055,57.8545714 49.503055,55.2341633 L49.503055,34.7239592 C49.503055,33.8913061 48.8309572,33.2178367 48,33.2178367 C47.1690428,33.2178367 46.496945,33.8913061 46.496945,34.7239592 L46.496945,55.2341633 C46.496945,56.2015102 45.7026477,56.9974286 44.7372709,56.9974286 L4.75356415,56.9974286 C3.78818737,56.9974286 2.99389002,56.2015102 2.99389002,55.2341633 L2.99389002,15.1566122 C2.99389002,14.1892653 3.78818737,13.3933469 4.75356415,13.3933469 L4.75356415,13.3933469 Z" id="Shape"></path>
                    </g>
                </g>
            </g>
        </g>
    </g>
</svg>