<?xml version="1.0" encoding="UTF-8" standalone="no"?>
<svg width="100px" height="100px" viewBox="0 0 100 100" version="1.1" xmlns="http://www.w3.org/2000/svg" xmlns:xlink="http://www.w3.org/1999/xlink">
    <!-- Generator: Sketch 39.1 (31720) - http://www.bohemiancoding.com/sketch -->
    <title>Artboard 3</title>
    <desc>Created with Sketch.</desc>
    <defs></defs>
    <g id="Page-1" stroke="none" stroke-width="1" fill="none" fill-rule="evenodd">
        <g id="Artboard-3" fill="#FF2576">
            <g id="idea-1-copy" transform="translate(15.000000, 11.000000)">
                <g id="Capa_1">
                    <g id="Group">
                        <path d="M35,11.2 C21.8764,11.2 11.2,21.8764 11.2,35 C11.2,44.9568 17.3474,53.7768 26.6,57.26 L26.6,70 C26.6,70.7742 27.2258,71.4 28,71.4 L29.4,71.4 L29.4,74.2 C29.4,74.9742 30.0258,75.6 30.8,75.6 L39.2,75.6 C39.9742,75.6 40.6,74.9742 40.6,74.2 L40.6,71.4 L42,71.4 C42.7742,71.4 43.4,70.7742 43.4,70 L43.4,57.26 C52.6526,53.7768 58.8,44.9568 58.8,35 C58.8,21.8764 48.1236,11.2 35,11.2 L35,11.2 Z M39.2,68.6 C38.4258,68.6 37.8,69.2258 37.8,70 L37.8,72.8 L32.2,72.8 L32.2,70 C32.2,69.2258 31.5742,68.6 30.8,68.6 L29.4,68.6 L29.4,61.6 L40.6,61.6 L40.6,68.6 L39.2,68.6 L39.2,68.6 Z M41.5632,54.9388 C40.9878,55.1278 40.6,55.6654 40.6,56.2688 L40.6,58.8 L29.4,58.8 L29.4,56.2688 C29.4,55.664 29.0122,55.1278 28.4368,54.9388 C19.803,52.0996 14,44.086 14,35 C14,23.4206 23.4206,14 35,14 C46.5794,14 56,23.4206 56,35 C56,44.086 50.197,52.0996 41.5632,54.9388 L41.5632,54.9388 Z" id="Shape"></path>
                        <path d="M35,8.4 C35.7742,8.4 36.4,7.7742 36.4,7 L36.4,1.4 C36.4,0.6258 35.7742,0 35,0 C34.2258,0 33.6,0.6258 33.6,1.4 L33.6,7 C33.6,7.7742 34.2258,8.4 35,8.4 L35,8.4 Z" id="Shape"></path>
                        <path d="M68.6,33.6 L63,33.6 C62.2258,33.6 61.6,34.2258 61.6,35 C61.6,35.7742 62.2258,36.4 63,36.4 L68.6,36.4 C69.3742,36.4 70,35.7742 70,35 C70,34.2258 69.3742,33.6 68.6,33.6 L68.6,33.6 Z" id="Shape"></path>
                        <path d="M7,33.6 L1.4,33.6 C0.6258,33.6 0,34.2258 0,35 C0,35.7742 0.6258,36.4 1.4,36.4 L7,36.4 C7.7742,36.4 8.4,35.7742 8.4,35 C8.4,34.2258 7.7742,33.6 7,33.6 L7,33.6 Z" id="Shape"></path>
                        <path d="M57.7696,10.2508 L53.8104,14.21 C53.263,14.7574 53.263,15.6422 53.8104,16.1896 C54.0834,16.4626 54.4418,16.5998 54.8002,16.5998 C55.1586,16.5998 55.517,16.4626 55.79,16.1896 L59.7492,12.2304 C60.2966,11.683 60.2966,10.7982 59.7492,10.2508 C59.2018,9.7034 58.3156,9.7048 57.7696,10.2508 L57.7696,10.2508 Z" id="Shape"></path>
                        <path d="M14.21,53.8104 L10.2508,57.7696 C9.7034,58.317 9.7034,59.2018 10.2508,59.7492 C10.5238,60.0222 10.8822,60.1594 11.2406,60.1594 C11.599,60.1594 11.9574,60.0222 12.2304,59.7492 L16.1896,55.79 C16.737,55.2426 16.737,54.3578 16.1896,53.8104 C15.6422,53.263 14.7574,53.263 14.21,53.8104 L14.21,53.8104 Z" id="Shape"></path>
                        <path d="M55.79,53.8104 C55.2426,53.263 54.3578,53.263 53.8104,53.8104 C53.263,54.3578 53.263,55.2426 53.8104,55.79 L57.7696,59.7492 C58.0426,60.0222 58.401,60.1594 58.7594,60.1594 C59.1178,60.1594 59.4762,60.0222 59.7492,59.7492 C60.2966,59.2018 60.2966,58.317 59.7492,57.7696 L55.79,53.8104 L55.79,53.8104 Z" id="Shape"></path>
                        <path d="M14.21,16.1896 C14.483,16.4626 14.8414,16.5998 15.1998,16.5998 C15.5582,16.5998 15.9166,16.4626 16.1896,16.1896 C16.737,15.6422 16.737,14.7574 16.1896,14.21 L12.2304,10.2508 C11.683,9.7034 10.7982,9.7034 10.2508,10.2508 C9.7034,10.7982 9.7034,11.683 10.2508,12.2304 L14.21,16.1896 L14.21,16.1896 Z" id="Shape"></path>
                        <path d="M35,18.2 C25.7362,18.2 18.2,25.7362 18.2,35 C18.2,35.7742 18.8258,36.4 19.6,36.4 C20.3742,36.4 21,35.7742 21,35 C21,27.2804 27.2804,21 35,21 C35.7742,21 36.4,20.3742 36.4,19.6 C36.4,18.8258 35.7742,18.2 35,18.2 L35,18.2 Z" id="Shape"></path>
                    </g>
                </g>
            </g>
        </g>
    </g>
</svg>