<?xml version="1.0" encoding="UTF-8" standalone="no"?>
<svg width="100px" height="100px" viewBox="0 0 100 100" version="1.1" xmlns="http://www.w3.org/2000/svg" xmlns:xlink="http://www.w3.org/1999/xlink">
    <!-- Generator: Sketch 39.1 (31720) - http://www.bohemiancoding.com/sketch -->
    <title>Artboard 3 Copy 2</title>
    <desc>Created with Sketch.</desc>
    <defs></defs>
    <g id="Page-1" stroke="none" stroke-width="1" fill="none" fill-rule="evenodd">
        <g id="Artboard-3-Copy-2" fill="#EAC435">
            <g id="people" transform="translate(9.000000, 16.000000)">
                <g id="Group">
                    <path d="M65.1947945,49.8976028 C65.146229,49.8839007 65.0966888,49.8732979 65.0468239,49.8657943 L54.9104286,48.3384965 C53.2712192,47.2734823 53.116589,44.6319078 53.1135029,41.7714255 C56.3146067,38.4579574 58.3111546,33.7933617 58.3111546,28.6333688 L58.3111546,28.2154539 C60.7956321,25.9997872 62.2093933,22.8561277 62.2093933,19.498617 L62.2093933,11.6688298 C62.2093933,5.23780142 56.9995597,0.00570921986 50.5958904,0.00570921986 L33.7035225,0.00570921986 C31.2786556,0.00570921986 29.2424755,1.70868794 28.7181624,3.98601418 C24.2582524,4.52708511 20.7906067,8.35144681 20.7906067,12.9737943 L20.7906067,19.498617 C20.7906067,22.856617 22.2042055,25.9999504 24.6888454,28.215617 L24.6888454,28.6333688 C24.6888454,33.7933617 26.6853933,38.4579574 29.8863346,41.7714255 C29.883411,44.6319078 29.7286184,47.2733191 28.089409,48.3384965 L17.9530137,49.8657943 C17.9031487,49.8732979 17.853771,49.8839007 17.8050431,49.8976028 C15.5757378,50.5248014 13.6789198,51.9131206 12.3195714,53.9128156 C11.0787945,55.7381348 10.3953033,57.9415674 10.3953033,60.1172695 L10.3953033,65.1723759 C10.3953033,67.2798936 12.2674325,68.9944539 14.5685303,68.9944539 L68.4313072,68.9944539 C70.7324051,68.9944539 72.6045342,67.2798936 72.6045342,65.1723759 L72.6045342,60.1172695 C72.6045342,57.9417305 71.9210431,55.7382979 70.6802661,53.9129787 C69.3210802,51.9132837 67.4240998,50.5248014 65.1947945,49.8976028 L65.1947945,49.8976028 Z M41.5,46.8213121 C44.9012133,46.8213121 48.0690196,45.7218794 50.7177104,43.8357163 C50.83482,46.0685106 51.2952994,48.5458227 53.1034325,50.0388652 C52.1256243,55.0381844 47.2672818,58.7291135 41.5,58.7291135 C35.7327182,58.7291135 30.8743757,55.0381844 29.8965675,50.0388652 C31.704863,48.5458227 32.16518,46.0685106 32.2822896,43.8357163 C34.9309804,45.7218794 38.0987867,46.8213121 41.5,46.8213121 L41.5,46.8213121 Z M27.1252446,27.7675248 C27.1320665,27.6929787 27.1319041,27.6184326 27.1252446,27.5442128 L27.1252446,20.8034184 C27.1252446,18.5998227 28.9104755,16.8069645 31.1046967,16.8069645 L53.1947162,16.8069645 C53.8674873,16.8069645 54.4129159,16.2593688 54.4129159,15.5835603 C54.4129159,14.9079149 53.8674873,14.360156 53.1947162,14.360156 L31.1046967,14.360156 C27.567045,14.360156 24.6888454,17.2506525 24.6888454,20.8034184 L24.6888454,24.4907589 C23.7440098,23.0218582 23.2270059,21.2997943 23.2270059,19.4984539 L23.2270059,12.9736312 C23.2270059,9.3308227 26.1779726,6.36724823 29.8052838,6.36724823 C30.4780548,6.36724823 31.0234834,5.81965248 31.0234834,5.14384397 C31.0234834,3.65977305 32.2257652,2.45235461 33.7035225,2.45235461 L50.5958904,2.45235461 C55.6561292,2.45235461 59.7729941,6.58680851 59.7729941,11.6686667 L59.7729941,19.4984539 C59.7729941,21.2994681 59.2559902,23.0215319 58.3111546,24.4905957 L58.3111546,19.4984539 C58.3111546,18.8228085 57.765726,18.2750496 57.092955,18.2750496 C56.420184,18.2750496 55.8747554,18.8228085 55.8747554,19.4984539 L55.8747554,28.6332057 C55.8747554,37.3128511 49.4262564,44.3743404 41.5,44.3743404 C33.5737436,44.3743404 27.1252446,37.3128511 27.1252446,28.6332057 L27.1252446,27.7675248 L27.1252446,27.7675248 Z M70.1682975,65.1723759 C70.1682975,65.9178369 69.3728943,66.5476454 68.4314697,66.5476454 L14.5685303,66.5476454 C13.6271057,66.5476454 12.8317025,65.9178369 12.8317025,65.1723759 L12.8317025,60.1172695 C12.8317025,57.0166738 14.7415147,53.3407518 18.3923777,52.2737801 L27.5836125,50.8888865 C28.9462094,56.8331631 34.706182,61.175922 41.5,61.175922 C48.293818,61.175922 54.0537906,56.8331631 55.4163875,50.8888865 L64.6076223,52.2737801 C68.2584853,53.3407518 70.1682975,57.0166738 70.1682975,60.1172695 L70.1682975,65.1723759 L70.1682975,65.1723759 Z" id="Shape"></path>
                    <path d="M7.71526419,54.8142199 L3.13012329,54.8142199 C2.73315264,54.8142199 2.43639922,54.5726383 2.43639922,54.3563404 L2.43639922,51.0856099 C2.43639922,49.2487092 3.55600587,47.0746383 5.6971135,46.4335745 L12.3283425,45.434461 C12.357092,45.4302199 12.3848669,45.423695 12.4129667,45.4173333 C12.4251487,45.4145603 12.4374932,45.4130922 12.4496751,45.4099929 C12.4951546,45.3984113 12.5391722,45.3837305 12.5822153,45.3672553 C12.5926106,45.3633404 12.6028434,45.3584468 12.6130763,45.3540426 C12.6484853,45.3393617 12.6829198,45.3232128 12.7165421,45.3054326 C12.7220646,45.3024965 12.7280744,45.300539 12.7335969,45.2974397 C12.744317,45.2915674 12.7540626,45.2850426 12.7647828,45.2790071 C12.7738787,45.2736241 12.7829746,45.2685674 12.791908,45.2630213 C14.2678787,44.4174043 14.7787104,42.8861915 14.9546184,41.3898865 C16.5717378,42.3536028 18.4285988,42.9038085 20.4030568,42.9038085 C22.0602955,42.9038085 23.6575988,42.525695 25.1506243,41.7797447 C25.7529022,41.4787872 25.9984912,40.7445816 25.6988141,40.1395674 C25.399137,39.5345532 24.6678924,39.288078 24.0654521,39.5890355 C22.9125479,40.1648511 21.6802172,40.457 20.4030568,40.457 C15.5115793,40.457 11.5322896,36.0819433 11.5322896,30.7043475 L11.5322896,25.4857943 C11.5322896,24.2981135 12.4943425,23.3319504 13.6769706,23.3319504 L16.8111546,23.3319504 C17.4839256,23.3319504 18.0293542,22.7843546 18.0293542,22.1085461 C18.0293542,21.4329007 17.4839256,20.8851418 16.8111546,20.8851418 L13.6769706,20.8851418 C11.1509119,20.8851418 9.09589041,22.9489433 9.09589041,25.4857943 L9.09589041,26.1270213 C8.98998826,25.6960567 8.9334638,25.2495957 8.9334638,24.7941631 L8.9334638,20.5726028 C8.9334638,18.4538298 10.6498258,16.7301348 12.7595851,16.7301348 C13.4323562,16.7301348 13.9777847,16.1823759 13.9777847,15.5067305 C13.9777847,14.7845957 14.562683,14.1971986 15.2817456,14.1971986 L16.8111546,14.1971986 C17.4839256,14.1971986 18.0293542,13.6496028 18.0293542,12.9737943 C18.0293542,12.2981489 17.4839256,11.7503901 16.8111546,11.7503901 L15.2817456,11.7503901 C13.6134618,11.7503901 12.1967769,12.852922 11.7161566,14.3705957 C8.75788063,14.8708865 6.49706458,17.4615674 6.49706458,20.5726028 L6.49706458,24.7941631 C6.49706458,27.0603972 7.43881409,29.1827589 9.09589041,30.6947234 L9.09589041,30.7045106 C9.09589041,34.1737589 10.4472798,37.3068156 12.6091781,39.5301489 C12.5960215,41.0859929 12.4774501,42.4806738 11.7116086,43.0533901 L5.25612524,44.026078 C5.20626027,44.0335816 5.15688258,44.0441844 5.1081546,44.0578865 C1.75453229,45.0013759 0,48.3073404 0,51.0856099 L0,54.3563404 C0,55.9578582 1.40417808,57.2610284 3.13012329,57.2610284 L7.71526419,57.2610284 C8.38803523,57.2610284 8.9334638,56.7134326 8.9334638,56.0376241 C8.9334638,55.3619787 8.38803523,54.8142199 7.71526419,54.8142199 L7.71526419,54.8142199 Z" id="Shape"></path>
                    <path d="M77.8918454,44.0577234 C77.8432798,44.0441844 77.7937397,44.0334184 77.7438748,44.0259149 L71.2883914,43.053227 C70.5225499,42.4805106 70.403816,41.0858298 70.3906595,39.5301489 C72.5525577,37.3066525 73.9039472,34.1735957 73.9039472,30.7043475 L73.9039472,30.6945603 C75.5610235,29.1825957 76.502773,27.0600709 76.502773,24.792695 L76.502773,18.1934894 C76.502773,14.6407234 73.6245734,11.750227 70.0869217,11.750227 L66.188683,11.750227 C65.5159119,11.750227 64.9704834,12.2979858 64.9704834,12.9736312 C64.9704834,13.6494397 65.5159119,14.1970355 66.188683,14.1970355 L70.0869217,14.1970355 C72.2811429,14.1970355 74.0663738,15.9898936 74.0663738,18.1934894 L74.0663738,24.794 C74.0663738,25.2494326 74.0098493,25.6958936 73.9039472,26.1268582 L73.9039472,25.4856312 C73.9039472,22.9487801 71.8489256,20.8849787 69.3228669,20.8849787 L66.1888454,20.8849787 C65.5160744,20.8849787 64.9706458,21.4327376 64.9706458,22.108383 C64.9706458,22.7841915 65.5160744,23.3317872 66.1888454,23.3317872 L69.3230294,23.3317872 C70.5056575,23.3317872 71.4677104,24.2979504 71.4677104,25.4856312 L71.4677104,30.7041844 C71.4677104,36.0817801 67.4884207,40.4568369 62.5972681,40.4568369 C61.3199452,40.4568369 60.0877769,40.1646879 58.9348728,39.5888723 C58.3322701,39.2879149 57.6011879,39.5345532 57.3015108,40.1394043 C57.0018337,40.7444184 57.2474227,41.4786241 57.8497006,41.7795816 C59.342726,42.5253688 60.9400294,42.9036454 62.5972681,42.9036454 C64.5715636,42.9036454 66.4285871,42.3534397 68.045544,41.3897234 C68.2214521,42.8858652 68.7324462,44.4172411 70.2084168,45.2628582 C70.2171879,45.2684043 70.2264462,45.273461 70.2353796,45.278844 C70.2459374,45.2848794 70.2558454,45.2914043 70.2665656,45.2972766 C70.2720881,45.3003759 70.2780978,45.3023333 70.2836204,45.3052695 C70.3170802,45.3230496 70.3515147,45.3391986 70.3869237,45.3538794 C70.397319,45.3582837 70.4075519,45.3631773 70.4179472,45.3670922 C70.4609902,45.3835674 70.5048454,45.3982482 70.5503249,45.4098298 C70.5626693,45.4129291 70.5750137,45.4145603 70.5873581,45.4173333 C70.6151331,45.4235319 70.642908,45.4300567 70.6714951,45.4342979 L77.3025616,46.4334113 C79.4438317,47.0744752 80.5634384,49.2485461 80.5634384,51.0854468 L80.5634384,54.3561773 C80.5634384,54.5723121 80.2666849,54.8140567 79.8697143,54.8140567 L75.2847358,54.8140567 C74.6119648,54.8140567 74.0665362,55.3618156 74.0665362,56.037461 C74.0665362,56.7132695 74.6119648,57.2608652 75.2847358,57.2608652 L79.8698767,57.2608652 C81.5958219,57.2608652 83,55.9578582 83,54.3561773 L83,51.0854468 C83,48.3073404 81.2454677,45.0013759 77.8918454,44.0577234 L77.8918454,44.0577234 Z" id="Shape"></path>
                </g>
            </g>
        </g>
    </g>
</svg>