<?xml version="1.0" encoding="UTF-8" standalone="no"?>
<svg width="149px" height="34px" viewBox="0 0 149 34" version="1.1" xmlns="http://www.w3.org/2000/svg" xmlns:xlink="http://www.w3.org/1999/xlink">
    <!-- Generator: Sketch 39.1 (31720) - http://www.bohemiancoding.com/sketch -->
    <title>Group 5</title>
    <desc>Created with Sketch.</desc>
    <defs></defs>
    <g id="Page-1" stroke="none" stroke-width="1" fill="none" fill-rule="evenodd">
        <g id="Artboard" transform="translate(-57.000000, -113.000000)">
            <g id="Group-5" transform="translate(57.000000, 113.000000)">
                <g id="Group-4-Copy">
                    <g id="confetti">
                        <g id="Layer_1">
                            <g id="Group">
                                <g transform="translate(0.000000, 12.856329)">
                                    <polygon id="Shape" fill="#FFB819" points="0.0236600567 20.3379881 20.2874561 10.9072371 9.27483286 0.0116793411"></polygon>
                                    <ellipse id="Oval" fill="#FFD26C" cx="12.0077054" cy="8.19364627" rx="2.45856091" ry="2.45546829"></ellipse>
                                    <path d="M5.23884419,8.87928697 C5.91936544,8.91903295 6.61294051,8.6783842 7.1303796,8.15661642 C8.07805099,7.20126443 8.07814164,5.66457097 7.13726912,4.7083136 L5.23884419,8.87928697 L5.23884419,8.87928697 Z" id="Shape" fill="#FFD26C"></path>
                                    <path d="M2.53688385,17.7422772 C2.05470822,18.2285542 1.818017,18.8652141 1.82554108,19.4994295 L5.88645892,17.6093681 C4.91675921,16.7745216 3.45164873,16.8200619 2.53688385,17.7422772 L2.53688385,17.7422772 Z" id="Shape" fill="#FFD26C"></path>
                                    <path d="M12.3145609,12.7774708 C11.7313088,13.365512 11.5074901,14.1738311 11.6404759,14.9315396 L15.9449745,12.9282158 C15.8965666,12.870815 15.8458924,12.8148628 15.7915014,12.7610835 C14.8268782,11.8067274 13.2702096,11.8140609 12.3145609,12.7774708 L12.3145609,12.7774708 Z" id="Shape" fill="#FFD26C"></path>
                                    <ellipse id="Oval" fill="#FFD26C" cx="6.36165439" cy="13.0782364" rx="2.45856091" ry="2.45546829"></ellipse>
                                    <polygon id="Shape" fill="#004D7A" points="8.09572805 2.60232016 17.7047025 12.1092133 20.2874561 10.9072371 9.27483286 0.0116793411"></polygon>
                                </g>
                                <ellipse id="Oval" fill="#00BCB4" cx="11.6033994" cy="7.84770238" rx="1.67678187" ry="1.67467265"></ellipse>
                                <ellipse id="Oval" fill="#00BCB4" cx="24.4333144" cy="21.326839" rx="1.67678187" ry="1.67467265"></ellipse>
                                <ellipse id="Oval" fill="#FFB819" cx="28.0784136" cy="13.8556822" rx="1.67678187" ry="1.67467265"></ellipse>
                                <ellipse id="Oval" fill="#FFB819" cx="15.3293598" cy="1.67467265" rx="1.67678187" ry="1.67467265"></ellipse>
                                <ellipse id="Oval" fill="#D85C72" cx="20.0625496" cy="16.4252278" rx="1.67678187" ry="1.67467265"></ellipse>
                                <ellipse id="Oval" fill="#D85C72" cx="21.0797507" cy="6.76197634" rx="1.67678187" ry="1.67467265"></ellipse>
                                <ellipse id="Oval" fill="#D85C72" cx="29.6779603" cy="7.53082103" rx="1.67678187" ry="1.67467265"></ellipse>
                                <path d="M11.4786629,13.009609 C11.1371785,13.009609 10.8605099,12.7331979 10.8605099,12.3922336 C10.8605099,12.0512693 11.1371785,11.7748582 11.4786629,11.7748582 C13.7791275,11.7748582 15.6508102,9.90562039 15.6508102,7.607959 C15.6508102,4.62945541 18.0770085,2.20630902 21.0592635,2.20630902 C24.0414278,2.20630902 26.4676261,4.62945541 26.4676261,7.607959 C26.4676261,7.94892333 26.1908669,8.22524387 25.8495637,8.22524387 C25.5082606,8.22524387 25.2315014,7.94892333 25.2315014,7.607959 C25.2315014,5.31029762 23.3598187,3.44105982 21.0593541,3.44105982 C18.7587989,3.44105982 16.8872068,5.31029762 16.8872068,7.607959 C16.8870255,10.5864626 14.4607365,13.009609 11.4786629,13.009609 L11.4786629,13.009609 Z" id="Shape" fill="#00BCB4"></path>
                                <path d="M27.672204,19.0162307 C25.3172578,19.0162307 23.4011558,17.1026296 23.4011558,14.7505551 C23.4011558,13.0793229 22.0396601,11.7194492 20.3663229,11.7194492 C18.6928952,11.7194492 17.3313994,13.0792324 17.3313994,14.7505551 C17.3313994,15.0915194 17.0546402,15.36784 16.7134278,15.36784 C16.3719433,15.36784 16.0952748,15.0915194 16.0952748,14.7505551 C16.0952748,12.3984807 18.0112861,10.4848795 20.3663229,10.4848795 C22.7213598,10.4848795 24.6373711,12.3984807 24.6373711,14.7505551 C24.6373711,16.4218779 25.9987762,17.7815705 27.672204,17.7815705 C29.3456317,17.7815705 30.7070368,16.4218779 30.7070368,14.7505551 C30.7070368,14.4095908 30.9838867,14.1332703 31.3252805,14.1332703 C31.6664929,14.1332703 31.9432521,14.4095908 31.9432521,14.7505551 C31.9433428,17.1026296 30.0273314,19.0162307 27.672204,19.0162307 L27.672204,19.0162307 Z" id="Shape" fill="#FFB819"></path>
                            </g>
                        </g>
                    </g>
                </g>
                <path d="M47.2119141,17.5361328 C48.9274174,15.9091716 49.7851562,13.9889434 49.7851562,11.7753906 L49.7851562,11.7587891 C49.7851562,10.12076 49.4863311,8.99186508 48.8886719,8.37207031 C48.5123679,7.98469858 47.8538458,7.4534539 46.9130859,6.77832031 C46.9241537,7.97363879 46.9767248,9.76658961 47.0708008,12.1572266 C47.1648768,14.5478635 47.2119141,16.3408143 47.2119141,17.5361328 L47.2119141,17.5361328 Z M45.6181641,30.0371094 L45.7841797,17.9013672 C45.7841797,12.522434 45.4964221,8.4772271 44.9208984,5.765625 C45.2750669,5.25650787 45.7067032,5.00195312 46.2158203,5.00195312 C47.0569704,5.00195312 47.8234015,5.19010229 48.5151367,5.56640625 C49.2068719,5.94271021 49.7685525,6.44075211 50.2001953,7.06054688 C51.0966842,8.36654299 51.5449219,9.84683417 51.5449219,11.5014648 C51.5449219,13.1560955 51.185225,14.6612888 50.4658203,16.0170898 C49.7464157,17.3728909 48.6894601,18.4270796 47.2949219,19.1796875 L47.5605469,29.7714844 C47.5605469,30.7122443 47.1842486,31.1826172 46.4316406,31.1826172 C46.1549465,31.1826172 45.950196,31.0636405 45.8173828,30.8256836 C45.6845696,30.5877267 45.6181641,30.3248712 45.6181641,30.0371094 L45.6181641,30.0371094 Z M56.1103516,13.8505859 L56.1601562,15.8427734 L56.1435547,19.0966797 C56.1435547,19.3733738 56.1490885,19.6998679 56.1601562,20.0761719 C56.171224,20.4524758 56.1850585,20.9477508 56.2016602,21.5620117 C56.2182618,22.1762726 56.2514646,22.7849905 56.3012695,23.3881836 C56.3510745,23.9913767 56.4091794,24.6277636 56.4755859,25.2973633 C56.5419925,25.966963 56.6305333,26.5867485 56.7412109,27.1567383 C56.8518886,27.7267281 56.9736321,28.2441383 57.1064453,28.7089844 C57.4052749,29.7161509 57.7981746,30.2197266 58.2851562,30.2197266 C58.9381543,30.2197266 59.4361962,29.6054749 59.7792969,28.3769531 C60.288414,26.5507721 60.5429688,24.3040498 60.5429688,21.6367188 L60.5927734,18.1337891 C60.5927734,15.6767455 60.4848644,14.0221397 60.269043,13.1699219 C60.0532216,12.3177041 59.8512379,11.6757834 59.6630859,11.2441406 C59.286782,10.3697873 58.7168007,9.93261719 57.953125,9.93261719 L57.8867188,9.93261719 C56.702468,9.93261719 56.1103516,11.2385937 56.1103516,13.8505859 L56.1103516,13.8505859 Z M62.4189453,21.8525391 C62.4189453,28.3714519 61.0852998,31.6308594 58.4179688,31.6308594 C55.9609252,31.6308594 54.5830093,28.5429996 54.2841797,22.3671875 C54.2620442,21.780596 54.2509766,21.1940133 54.2509766,20.6074219 L54.234375,18.5322266 L54.234375,17.8681641 C54.234375,13.0758224 54.9371675,10.11524 56.3427734,8.98632812 C56.6858741,8.70963403 57.0677062,8.56022146 57.4882812,8.53808594 C57.8092464,8.64876357 58.2021461,8.75113885 58.6669922,8.84521484 C59.1318383,8.93929083 59.4749338,9.03613231 59.6962891,9.13574219 C60.1057963,9.32389417 60.5485002,9.81363537 61.0244141,10.6049805 C61.5003279,11.3963256 61.8517241,12.4532811 62.0786133,13.7758789 C62.3055024,15.0984767 62.4189453,16.4238215 62.4189453,17.7519531 L62.4189453,21.8525391 Z M67.6982422,11.9414062 L67.7978516,20.109375 C67.6650384,20.4303401 67.5986328,21.0445918 67.5986328,21.9521484 L67.4658203,27.3642578 C67.4658203,28.9248125 67.8476524,29.7050781 68.6113281,29.7050781 L70.0224609,29.6552734 C71.2399149,29.6552734 71.8486328,29.9873014 71.8486328,30.6513672 C71.8486328,30.894858 71.7434906,31.0968416 71.5332031,31.2573242 C71.3229156,31.4178068 71.0849623,31.5146483 70.8193359,31.5478516 C69.9892537,31.2822252 68.9765685,31.1494141 67.78125,31.1494141 C67.4160138,31.3597016 67.0646176,31.4648438 66.7270508,31.4648438 C66.389484,31.4648438 66.1266285,31.348634 65.9384766,31.1162109 C65.7503246,30.8837879 65.65625,30.6292332 65.65625,30.3525391 L65.9882812,15.1621094 L65.9882812,14.9130859 C65.9218747,14.2047491 65.8886719,13.1422597 65.8886719,11.7255859 C65.8886719,9.57843979 66.2815716,8.50488281 67.0673828,8.50488281 C67.2998058,8.50488281 67.5017895,8.58788979 67.6733398,8.75390625 C67.8448902,8.91992271 67.9306641,9.11913946 67.9306641,9.3515625 L67.6982422,11.9414062 Z M77.3603516,27.8457031 L77.4267578,26.6835938 C77.3382157,26.3958319 77.1556003,23.8364499 76.8789062,19.0053711 C76.6022122,14.1742923 76.4527996,11.2275444 76.4306641,10.1650391 C75.1246679,10.1318358 74.3167333,10.0128591 74.0068359,9.80810547 C73.6969386,9.60335184 73.5419922,9.39030059 73.5419922,9.16894531 C73.5419922,8.94759004 73.6637358,8.76774158 73.9072266,8.62939453 C74.1507174,8.49104749 74.3886707,8.421875 74.6210938,8.421875 L79.2363281,8.73730469 L79.7841797,8.72070312 C80.4925166,8.72070312 80.8466797,8.99185927 80.8466797,9.53417969 C80.8466797,9.81087378 80.7304699,10.0349926 80.4980469,10.206543 C80.2656238,10.3780933 80.0055353,10.4638672 79.7177734,10.4638672 L78.1572266,10.2314453 L78.0908203,10.5800781 C78.0908203,12.7272243 78.2789695,15.9423614 78.6552734,20.2255859 C79.0315774,24.5088105 79.2197266,27.7294814 79.2197266,29.8876953 C79.2197266,30.1643894 79.1173513,30.4023428 78.9125977,30.6015625 C78.707844,30.8007822 78.4671238,30.9003906 78.1904297,30.9003906 L77.4267578,30.9003906 L77.3603516,27.8457031 Z M86.7070312,29.7216797 L88.0517578,29.6386719 C88.9150434,29.6386719 89.3466797,29.9153618 89.3466797,30.46875 C89.3466797,30.8118507 89.1972671,31.0608716 88.8984375,31.2158203 C88.5996079,31.370769 88.2620462,31.4482422 87.8857422,31.4482422 L84.6816406,31.4482422 C84.3938788,31.4482422 84.1476247,31.3486338 83.9428711,31.1494141 C83.7381175,30.9501943 83.6274415,30.6956396 83.6108398,30.3857422 C83.5942382,30.0758448 83.6163734,29.6884789 83.6772461,29.2236328 C83.7381188,28.7587867 83.7685547,28.3880222 83.7685547,28.1113281 L83.6025391,23.7617188 L83.8349609,13.8339844 L83.6523438,10.9619141 C83.6523438,9.35708833 84.1282504,8.5546875 85.0800781,8.5546875 C85.3457045,8.5546875 85.5947254,8.63769448 85.8271484,8.80371094 C85.9156905,8.8147787 86.1287418,8.834147 86.4663086,8.86181641 C86.8038754,8.88948582 87.0999336,8.92545551 87.3544922,8.96972656 C87.6090508,9.01399762 87.8857407,9.0748694 88.1845703,9.15234375 C88.8265006,9.32942797 89.1474609,9.6337869 89.1474609,10.0654297 C89.1474609,10.5302758 88.815433,10.8844389 88.1513672,11.1279297 C87.1109974,10.7737612 86.2532586,10.5579431 85.578125,10.4804688 C85.6113283,10.9674504 85.6279297,11.4544246 85.6279297,11.9414062 L85.4785156,16.8222656 C85.4785156,16.8444012 85.5117184,17.0214827 85.578125,17.3535156 C85.578125,17.3535156 85.9820923,17.3369142 86.7900391,17.3037109 C87.8857477,17.3037109 88.4335938,17.6136037 88.4335938,18.2333984 C88.4335938,18.5654313 88.3367523,18.8587227 88.1430664,19.1132812 C87.9493805,19.3678398 87.6754575,19.4951172 87.3212891,19.4951172 C86.9671206,19.4951172 86.6572279,19.3955088 86.3916016,19.1962891 L85.5283203,19.1962891 C85.5947269,20.0595746 85.6279297,20.8785769 85.6279297,21.6533203 L85.4785156,27.8125 C85.4785156,29.0852928 85.8880167,29.7216797 86.7070312,29.7216797 L86.7070312,29.7216797 Z M93.8125,20.9394531 C93.6575513,21.5703157 93.5800781,22.1541314 93.5800781,22.690918 C93.5800781,23.2277045 93.6492506,24.3732009 93.7875977,26.1274414 C93.9259447,27.8816819 93.9951172,29.0133438 93.9951172,29.5224609 C93.9951172,30.0315781 93.9038095,30.418944 93.7211914,30.6845703 C93.5385733,30.9501966 93.3310558,31.0830078 93.0986328,31.0830078 C92.7665999,31.0830078 92.5563155,30.8561221 92.4677734,30.4023438 C92.489909,29.5611937 92.5009766,28.5291402 92.5009766,27.3061523 C92.5009766,26.0831645 92.4041351,23.3965051 92.2104492,19.2460938 C92.0167634,15.0956824 91.9199219,11.996755 91.9199219,9.94921875 C91.9199219,8.87564567 92.2962202,8.33886719 93.0488281,8.33886719 C94.2330788,8.33886719 95.2291626,8.64875992 96.0371094,9.26855469 C96.8450561,9.88834945 97.2490234,10.7737573 97.2490234,11.9248047 C97.2490234,13.4742916 97.1272799,14.6806597 96.8837891,15.5439453 C96.6402983,16.4072309 96.180993,17.4863217 95.5058594,18.78125 C95.6276048,19.3235704 95.8434229,20.408195 96.1533203,22.0351562 C96.8063184,25.5547051 97.5423136,28.0947188 98.3613281,29.6552734 C98.5937512,30.097984 98.7099609,30.4438464 98.7099609,30.6928711 C98.7099609,30.9418958 98.6407885,31.1521801 98.5024414,31.3237305 C98.3640944,31.4952808 98.1787121,31.5810547 97.9462891,31.5810547 C97.2047489,31.5810547 96.5240916,30.3470175 95.9042969,27.8789062 C95.6386705,26.8053332 95.4007172,25.7207086 95.1904297,24.625 C94.5927704,21.625636 94.2109383,19.9378274 94.0449219,19.5615234 C94.0449219,19.8492853 93.9674487,20.3085906 93.8125,20.9394531 L93.8125,20.9394531 Z M93.7626953,9.60058594 L93.6464844,10.0820312 C93.6464844,11.0117234 93.6686196,12.3536696 93.7128906,14.1079102 C93.7571617,15.8621507 93.7792969,17.1376913 93.7792969,17.9345703 C94.3105495,17.6578762 94.7394189,16.9357155 95.065918,15.7680664 C95.392417,14.6004173 95.5556641,13.7067088 95.5556641,13.0869141 C95.5556641,12.4671193 95.5390627,12.0105809 95.5058594,11.7172852 C95.4726561,11.4239894 95.4007167,11.1002622 95.2900391,10.7460938 C95.0797516,10.0045536 94.5706421,9.62272146 93.7626953,9.60058594 L93.7626953,9.60058594 Z M109.21875,25.5048828 L109.036133,26.1855469 C109.036133,26.462241 109.135741,27.1373644 109.334961,28.2109375 C109.534181,29.2845106 109.633789,29.987303 109.633789,30.3193359 L109.633789,30.3525391 C109.633789,30.8616562 109.462241,31.1826165 109.119141,31.3154297 C108.643227,31.3154297 108.272462,31.2379565 108.006836,31.0830078 C107.74121,30.9280591 107.608398,30.5379263 107.608398,29.9125977 C107.608398,29.287269 107.442384,28.0006608 107.110352,26.0527344 L106.064453,25.953125 L104.935547,25.953125 C104.680988,25.8424474 104.232751,25.7871094 103.59082,25.7871094 C103.59082,25.8092449 103.576986,25.9558906 103.549316,26.2270508 C103.521647,26.498211 103.499512,26.716796 103.48291,26.8828125 C103.466309,27.048829 103.43864,27.295083 103.399902,27.621582 C103.361165,27.9480811 103.319662,28.224771 103.275391,28.4516602 C103.23112,28.6785493 103.175782,28.9441717 103.109375,29.2485352 C103.042968,29.5528987 102.968262,29.8074534 102.885254,30.012207 C102.802246,30.2169607 102.710938,30.4134105 102.611328,30.6015625 C102.412108,30.9889342 102.168621,31.1826172 101.880859,31.1826172 C101.593098,31.1826172 101.335776,31.0968433 101.108887,30.925293 C100.881998,30.7537426 100.768555,30.5351576 100.768555,30.2695312 C101.366214,27.9785042 101.87809,25.5768355 102.304199,23.0644531 C102.730308,20.5520708 102.984863,19.060712 103.067871,18.590332 C103.150879,18.1199521 103.344562,17.2124091 103.648926,15.8676758 C103.953289,14.5229425 104.135905,13.6237002 104.196777,13.1699219 C104.25765,12.7161436 104.315755,12.1295609 104.371094,11.4101562 C104.470704,9.83853381 104.675454,8.82584862 104.985352,8.37207031 L106.130859,8.37207031 C106.905603,8.37207031 107.292969,8.60448986 107.292969,9.06933594 C107.292969,13.4411026 107.719071,17.7851347 108.571289,22.1015625 C108.61556,22.3561211 108.698567,22.7102842 108.820312,23.1640625 C109.085939,24.1490935 109.21875,24.9293591 109.21875,25.5048828 L109.21875,25.5048828 Z M106.894531,24.7744141 C106.828125,24.4423812 106.794922,23.9056027 106.794922,23.1640625 C106.794922,22.4225223 106.747885,21.52328 106.653809,20.4663086 C106.559733,19.4093372 106.424155,18.1836007 106.24707,16.7890625 C106.069986,15.3945243 105.948243,14.3873729 105.881836,13.7675781 C105.749023,14.4095084 105.488934,15.4830654 105.101562,16.9882812 C104.315751,20.1204584 103.911784,22.5331947 103.889648,24.2265625 C104.27702,24.4811211 105.278638,24.6637364 106.894531,24.7744141 L106.894531,24.7744141 Z M114.664062,12.4892578 L114.481445,19.1132812 L114.481445,19.1630859 C115.853848,18.974934 116.540039,17.0602396 116.540039,13.4189453 C116.540039,12.0908137 116.246748,11.2386087 115.660156,10.8623047 C115.39453,10.6962882 115.062502,10.6132812 114.664062,10.6132812 L114.664062,12.4892578 Z M112.754883,16.3076172 L112.804688,13.0703125 C112.804688,11.7311131 112.710613,10.6796913 112.522461,9.91601562 C112.5778,9.62825377 112.685709,9.35709763 112.846191,9.10253906 C113.006674,8.8479805 113.208658,8.72070312 113.452148,8.72070312 L114.946289,8.72070312 C116.252285,8.72070312 117.170896,9.26301541 117.702148,10.3476562 C118.166995,11.3105517 118.399414,12.4173115 118.399414,13.6679688 C118.399414,15.250659 118.360677,16.2218406 118.283203,16.581543 C118.205729,16.9412453 118.122722,17.2815739 118.03418,17.6025391 C117.945638,17.9235042 117.837729,18.1835928 117.710449,18.3828125 C117.58317,18.5820322 117.419923,18.8006173 117.220703,19.0385742 C117.021483,19.2765311 116.794598,19.4785148 116.540039,19.6445312 C115.975583,20.0097675 115.294926,20.3196602 114.498047,20.5742188 L114.498047,24.2099609 L114.763672,30.6513672 C114.763672,30.939129 114.664063,31.1770824 114.464844,31.3652344 C114.265624,31.5533864 114.022137,31.6474609 113.734375,31.6474609 L112.904297,31.6474609 C112.771484,31.0276662 112.705078,30.1035218 112.705078,28.875 L112.62207,20.1757812 L112.754883,16.3076172 Z M123.628906,12.4892578 L123.446289,19.1132812 L123.446289,19.1630859 C124.818692,18.974934 125.504883,17.0602396 125.504883,13.4189453 C125.504883,12.0908137 125.211591,11.2386087 124.625,10.8623047 C124.359374,10.6962882 124.027346,10.6132812 123.628906,10.6132812 L123.628906,12.4892578 Z M121.719727,16.3076172 L121.769531,13.0703125 C121.769531,11.7311131 121.675457,10.6796913 121.487305,9.91601562 C121.542644,9.62825377 121.650553,9.35709763 121.811035,9.10253906 C121.971518,8.8479805 122.173501,8.72070312 122.416992,8.72070312 L123.911133,8.72070312 C125.217129,8.72070312 126.13574,9.26301541 126.666992,10.3476562 C127.131838,11.3105517 127.364258,12.4173115 127.364258,13.6679688 C127.364258,15.250659 127.325521,16.2218406 127.248047,16.581543 C127.170573,16.9412453 127.087566,17.2815739 126.999023,17.6025391 C126.910481,17.9235042 126.802572,18.1835928 126.675293,18.3828125 C126.548014,18.5820322 126.384767,18.8006173 126.185547,19.0385742 C125.986327,19.2765311 125.759441,19.4785148 125.504883,19.6445312 C124.940427,20.0097675 124.25977,20.3196602 123.462891,20.5742188 L123.462891,24.2099609 L123.728516,30.6513672 C123.728516,30.939129 123.628907,31.1770824 123.429688,31.3652344 C123.230468,31.5533864 122.986981,31.6474609 122.699219,31.6474609 L121.869141,31.6474609 C121.736327,31.0276662 121.669922,30.1035218 121.669922,28.875 L121.586914,20.1757812 L121.719727,16.3076172 Z M133.65625,29.7216797 L135.000977,29.6386719 C135.864262,29.6386719 136.295898,29.9153618 136.295898,30.46875 C136.295898,30.8118507 136.146486,31.0608716 135.847656,31.2158203 C135.548827,31.370769 135.211265,31.4482422 134.834961,31.4482422 L131.630859,31.4482422 C131.343098,31.4482422 131.096843,31.3486338 130.89209,31.1494141 C130.687336,30.9501943 130.57666,30.6956396 130.560059,30.3857422 C130.543457,30.0758448 130.565592,29.6884789 130.626465,29.2236328 C130.687338,28.7587867 130.717773,28.3880222 130.717773,28.1113281 L130.551758,23.7617188 L130.78418,13.8339844 L130.601562,10.9619141 C130.601562,9.35708833 131.077469,8.5546875 132.029297,8.5546875 C132.294923,8.5546875 132.543944,8.63769448 132.776367,8.80371094 C132.864909,8.8147787 133.077961,8.834147 133.415527,8.86181641 C133.753094,8.88948582 134.049152,8.92545551 134.303711,8.96972656 C134.55827,9.01399762 134.834959,9.0748694 135.133789,9.15234375 C135.775719,9.32942797 136.09668,9.6337869 136.09668,10.0654297 C136.09668,10.5302758 135.764652,10.8844389 135.100586,11.1279297 C134.060216,10.7737612 133.202477,10.5579431 132.527344,10.4804688 C132.560547,10.9674504 132.577148,11.4544246 132.577148,11.9414062 L132.427734,16.8222656 C132.427734,16.8444012 132.460937,17.0214827 132.527344,17.3535156 C132.527344,17.3535156 132.931311,17.3369142 133.739258,17.3037109 C134.834966,17.3037109 135.382812,17.6136037 135.382812,18.2333984 C135.382812,18.5654313 135.285971,18.8587227 135.092285,19.1132812 C134.898599,19.3678398 134.624676,19.4951172 134.270508,19.4951172 C133.916339,19.4951172 133.606447,19.3955088 133.34082,19.1962891 L132.477539,19.1962891 C132.543946,20.0595746 132.577148,20.8785769 132.577148,21.6533203 L132.427734,27.8125 C132.427734,29.0852928 132.837235,29.7216797 133.65625,29.7216797 L133.65625,29.7216797 Z M140.927734,17.5859375 L141.126953,26.3847656 L141.126953,30.2363281 C141.126953,30.5351577 141.04948,30.7869456 140.894531,30.9916992 C140.739583,31.1964528 140.523764,31.2988281 140.24707,31.2988281 C139.50553,31.2988281 139.134766,30.6071033 139.134766,29.2236328 L139.068359,17.2373047 L139.267578,10.8955078 C139.267578,9.36815643 139.682613,8.60449219 140.512695,8.60449219 C141.010745,8.60449219 141.370442,8.98632431 141.591797,9.75 C141.901694,11.2109448 142.44124,13.3110215 143.210449,16.050293 C143.979659,18.7895645 144.508137,20.8730397 144.795898,22.3007812 C145.006186,22.9980504 145.277342,24.0301038 145.609375,25.3969727 C145.941408,26.7638415 146.201496,27.7903612 146.389648,28.4765625 C146.478191,23.5624754 146.522461,17.6081079 146.522461,10.6132812 L146.472656,9.70019531 C146.472656,9.39029793 146.530761,9.14404388 146.646973,8.96142578 C146.763184,8.77880768 146.959634,8.6875 147.236328,8.6875 C147.513022,8.6875 147.739908,8.75390559 147.916992,8.88671875 C148.271161,9.15234508 148.448242,9.5286434 148.448242,10.015625 C148.448242,13.1256666 148.359701,17.1210693 148.182617,22.0019531 C148.005533,26.8828369 147.739911,29.9319601 147.385742,31.1494141 C147.341471,31.1604818 147.247397,31.1909177 147.103516,31.2407227 C146.959635,31.2905276 146.854493,31.3209635 146.788086,31.3320312 C146.157223,31.4759122 145.75879,31.4482432 145.592773,31.2490234 C145.426757,31.0498037 145.30778,30.7841813 145.23584,30.4521484 C145.163899,30.1201155 145.080892,29.7963883 144.986816,29.480957 C144.89274,29.1655258 144.541344,27.6575656 143.932617,24.9570312 C142.305656,17.8183237 141.304038,13.6679746 140.927734,12.5058594 L140.927734,17.5859375 Z" id="Polterappen" fill="#424749"></path>
            </g>
        </g>
    </g>
</svg>