<?xml version="1.0" encoding="UTF-8" standalone="no"?>
<svg width="100px" height="100px" viewBox="0 0 100 100" version="1.1" xmlns="http://www.w3.org/2000/svg" xmlns:xlink="http://www.w3.org/1999/xlink">
    <!-- Generator: Sketch 39.1 (31720) - http://www.bohemiancoding.com/sketch -->
    <title>Artboard 3 Copy 3</title>
    <desc>Created with Sketch.</desc>
    <defs></defs>
    <g id="Page-1" stroke="none" stroke-width="1" fill="none" fill-rule="evenodd">
        <g id="Artboard-3-Copy-3" fill="#20ADE4">
            <g id="stemware" transform="translate(15.000000, 13.000000)">
                <path d="M70.8280544,68.7615551 C70.6554649,68.1136069 69.9937642,67.7284017 69.3491293,67.9025378 L68.1050998,68.237851 C66.4229955,68.6912527 64.6657052,68.4584773 63.1573175,67.5824514 C61.6497347,66.7065875 60.5710499,65.2926026 60.1199342,63.6008099 C60.1199342,63.6008099 60.1197732,63.600324 60.1197732,63.600162 L54.8720522,43.8066415 C57.2841202,42.8654968 59.2568254,41.1153888 60.5003719,38.7829374 C61.9361497,36.0900648 62.194068,33.0116631 61.2264717,30.1148488 L51.7388753,1.71106911 C51.3201202,0.45712743 49.9980068,-0.257073434 48.7275737,0.0856911447 L36.135941,3.48029158 C35.9045873,3.54265659 35.6896553,3.63693305 35.4935601,3.75631749 C35.2974649,3.63709503 35.0826939,3.54265659 34.8513401,3.48029158 L22.2598685,0.0858531317 C20.9899184,-0.256425486 19.667161,0.457451404 19.2484059,1.71106911 L9.76080952,30.1150108 C8.79321315,33.0116631 9.05113152,36.0900648 10.4869093,38.7829374 C11.7304558,41.1155508 13.703161,42.8658207 16.115229,43.8068035 L10.8675079,63.600324 C10.8675079,63.600324 10.8675079,63.6008099 10.8673469,63.6009719 C10.4162313,65.2927646 9.33754649,66.7067495 7.82996372,67.5826134 C6.32173696,68.4586393 4.56428571,68.6914147 2.8823424,68.238013 C2.88202041,68.238013 2.88185941,68.238013 2.88153741,68.237851 L1.63815193,67.9026998 C0.993678005,67.7285637 0.331816327,68.1137689 0.159226757,68.7617171 C-0.0133628118,69.4098272 0.368845805,70.0760799 1.01299773,70.24973 L17.184737,74.6094492 C17.18522,74.6096112 17.1857029,74.6097732 17.1861859,74.6099352 C17.1863469,74.6099352 17.1865079,74.6099352 17.1868299,74.6100972 L18.4303764,74.9454104 C18.5350249,74.9737581 18.6403175,74.987203 18.743678,74.987203 C19.2769025,74.987203 19.7647256,74.6292117 19.9091406,74.0863931 C20.0817302,73.4382829 19.6995215,72.7720302 19.0553696,72.5983801 L17.8097302,72.262581 C16.1281088,71.8088553 14.7224376,70.7233801 13.8519229,69.2063715 C12.9812472,67.6887149 12.7497324,65.9207883 13.2005261,64.2281857 L13.2005261,64.2280238 L13.2010091,64.2267279 L18.4479252,44.4362851 C19.0020794,44.5224622 19.5571995,44.5666847 20.1099048,44.5666847 C22.1051497,44.5666847 24.065619,44.0078294 25.8161474,42.9163607 C28.397907,41.3066955 30.1510113,38.7701404 30.7526599,35.774676 L35.4935601,12.1687905 L40.2344603,35.774676 C40.8361088,38.7701404 42.5892132,41.3065335 45.1709728,42.9163607 C46.9216621,44.0079914 48.8819705,44.5666847 50.8772154,44.5666847 C51.4297596,44.5666847 51.9850408,44.5224622 52.539195,44.4362851 L57.7861111,64.2267279 C57.7862721,64.2270518 57.7864331,64.2275378 57.7865941,64.2278618 L57.7865941,64.2280238 C58.2373878,65.9206263 58.005873,67.6885529 57.1351973,69.2062095 C56.2646825,70.7232181 54.8590113,71.8086933 53.17739,72.262419 L51.9317506,72.5982181 C51.2875986,72.7717063 50.90539,73.438121 51.0779796,74.0862311 C51.2223946,74.6290497 51.7103787,74.987041 52.2434422,74.987041 C52.3469637,74.987041 52.4520952,74.9735961 52.5567438,74.9452484 L53.8002902,74.6099352 C53.8004512,74.6099352 53.8006122,74.6099352 53.8009342,74.6097732 C53.8014172,74.6096112 53.8019002,74.6094492 53.8023832,74.6092873 L68.729932,70.5848812 L68.730093,70.5848812 L69.9739615,70.249568 C70.6184354,70.0759179 71.000644,69.4096652 70.8280544,68.7615551 L70.8280544,68.7615551 Z M11.7605624,70.4209503 C11.8096667,70.5063175 11.8618299,70.5892549 11.9131882,70.6726782 L8.78339229,69.8288877 C8.86856009,69.7830454 8.9532449,69.7357451 9.03744671,69.6868251 C9.71637415,69.2923866 10.3300975,68.8171166 10.8723379,68.2760799 C11.073263,69.0174946 11.3686939,69.738013 11.7605624,70.4209503 L11.7605624,70.4209503 Z M24.5441043,40.8507019 C22.5351746,42.1031857 20.1715669,42.4540497 17.888458,41.8389849 C17.8879751,41.8388229 17.8873311,41.8386609 17.8868481,41.8384989 C17.8866871,41.8384989 17.8863651,41.8384989 17.8862041,41.8383369 C15.6039002,41.2223002 13.7319796,39.7294276 12.6149773,37.6344492 C11.4978141,35.5388229 11.2970499,33.1433585 12.0500363,30.8893089 L13.1238912,27.6743521 C14.129805,27.5690605 14.7316145,27.1529158 15.1867551,26.837365 C15.6032562,26.5488661 15.8122313,26.4038877 16.3712154,26.4038877 C16.9305215,26.4038877 17.1393356,26.5488661 17.5558367,26.837527 C18.0810113,27.2013499 18.8000272,27.699784 20.1103878,27.699784 C21.4199433,27.699784 22.1383152,27.2010259 22.6628458,26.836879 C23.078059,26.5487041 23.286551,26.4038877 23.8436032,26.4038877 C24.4003333,26.4038877 24.6088254,26.5487041 25.0237166,26.836879 C25.5482472,27.2010259 26.266458,27.699784 27.5758526,27.699784 C28.8437098,27.699784 29.5566077,27.2324514 30.0767914,26.8721922 L28.3855102,35.2930886 C27.9174898,37.6242441 26.553195,39.5978942 24.5441043,40.8507019 L24.5441043,40.8507019 Z M34.2844671,5.92176026 L30.6496213,24.0202484 C29.7440091,24.1516199 29.1848639,24.5390929 28.755966,24.836987 C28.3410748,25.125162 28.1327438,25.2699784 27.5760136,25.2699784 C27.0192834,25.2699784 26.8107914,25.125162 26.3959002,24.836987 C25.8713696,24.4728402 25.1531587,23.9740821 23.8437642,23.9740821 C22.5343696,23.9740821 21.8159977,24.4728402 21.2913061,24.836987 C20.876093,25.125162 20.6676009,25.2699784 20.1103878,25.2699784 C19.5512426,25.2699784 19.3422676,25.125 18.9259274,24.8365011 C18.4007528,24.4725162 17.681576,23.9740821 16.3712154,23.9740821 C15.3139433,23.9740821 14.6417778,24.2985421 14.1457438,24.6150648 L21.5376327,2.48520518 C21.5509955,2.44470842 21.5941429,2.42105832 21.6348753,2.43288337 L34.2263469,5.8274838 C34.2672404,5.83849892 34.292839,5.87980562 34.2844671,5.92176026 L34.2844671,5.92176026 Z M36.7610952,5.8274838 L49.3528889,2.43288337 C49.3596508,2.43093952 49.3667347,2.43012959 49.3734966,2.43012959 C49.4073061,2.43012959 49.4385397,2.45167387 49.4498095,2.48536717 L56.8416984,24.6150648 C56.3456644,24.2985421 55.6736599,23.9740821 54.6162268,23.9740821 C53.3057052,23.9740821 52.5866893,24.4725162 52.0615147,24.8365011 C51.6450136,25.125 51.4360385,25.2699784 50.8770544,25.2699784 C50.3200023,25.2699784 50.1115102,25.125162 49.6962971,24.836987 C49.1716054,24.4728402 48.4532336,23.9740821 47.143839,23.9740821 C45.8344444,23.9740821 45.1162336,24.4728402 44.5917029,24.836987 C44.1768118,25.125162 43.9683197,25.2699784 43.4115896,25.2699784 C42.8548594,25.2699784 42.6465283,25.125162 42.2316372,24.836987 C41.8027392,24.5390929 41.2435941,24.1516199 40.3379819,24.0202484 L36.7029751,5.92159827 C36.6944422,5.8799676 36.7202018,5.83849892 36.7610952,5.8274838 L36.7610952,5.8274838 Z M46.4433379,40.8507019 C44.4342472,39.5980562 43.0699524,37.6242441 42.601771,35.2930886 L40.9104898,26.8720302 C41.4306735,27.2324514 42.1435714,27.699784 43.4114286,27.699784 C44.7208231,27.699784 45.439034,27.2010259 45.9635646,26.836879 C46.3784558,26.5487041 46.5869478,26.4038877 47.143678,26.4038877 C47.7008912,26.4038877 47.9093832,26.5487041 48.3245964,26.836879 C48.849288,27.2010259 49.5676599,27.699784 50.8770544,27.699784 C52.187576,27.699784 52.9064308,27.2013499 53.4316054,26.837527 C53.8481066,26.5488661 54.0570816,26.4038877 54.6162268,26.4038877 C55.1753719,26.4038877 55.3843469,26.5488661 55.8006871,26.837365 C56.2559887,27.1529158 56.8576372,27.5690605 57.86339,27.6743521 L58.9372449,30.8893089 C59.6902313,33.1433585 59.4896281,35.5389849 58.3723039,37.6346112 C57.2553016,39.7297516 55.383381,41.2223002 53.1010771,41.8383369 C53.1009161,41.8383369 53.1005941,41.8383369 53.1004331,41.8384989 C53.0999501,41.8386609 53.0993061,41.8388229 53.0988231,41.8389849 C50.8158753,42.4542117 48.4522676,42.1035097 46.4433379,40.8507019 L46.4433379,40.8507019 Z M59.2268798,70.4209503 C59.6187483,69.737851 59.9141791,69.0173326 60.1151043,68.2760799 C60.6573447,68.8169546 61.271229,69.2923866 61.9499955,69.6868251 C62.0340363,69.7357451 62.1188821,69.7830454 62.2040499,69.8288877 L59.074254,70.6726782 C59.1256122,70.5892549 59.1777755,70.5064795 59.2268798,70.4209503 L59.2268798,70.4209503 Z" id="Shape"></path>
            </g>
        </g>
    </g>
</svg>