<?xml version="1.0" encoding="UTF-8" standalone="no"?>
<svg width="158px" height="34px" viewBox="0 0 158 34" version="1.1" xmlns="http://www.w3.org/2000/svg" xmlns:xlink="http://www.w3.org/1999/xlink">
    <!-- Generator: Sketch 39.1 (31720) - http://www.bohemiancoding.com/sketch -->
    <title>Group 4</title>
    <desc>Created with Sketch.</desc>
    <defs></defs>
    <g id="Page-1" stroke="none" stroke-width="1" fill="none" fill-rule="evenodd">
        <g id="Artboard" transform="translate(-57.000000, -51.000000)">
            <g id="Group-4" transform="translate(57.000000, 51.000000)">
                <path d="M46.607,22.348 C46.4856661,20.5626577 46.425,18.1490152 46.425,15.107 C46.425,12.0649848 46.4683329,10.0933378 46.555,9.192 C46.6416671,8.63733056 47.0229966,8.26900091 47.699,8.087 C48.3750034,7.90499909 49.2676611,7.814 50.377,7.814 C52.0063415,7.814 53.3799944,8.16499649 54.498,8.867 C55.6160056,9.56900351 56.175,10.6046598 56.175,11.974 C56.175,13.1006723 56.0190016,14.0409962 55.707,14.795 C55.3949984,15.5490038 55.0050023,16.1079982 54.537,16.472 C53.7743295,17.0613363 52.6476741,17.356 51.157,17.356 C50.5156635,17.356 49.6750052,17.2693342 48.635,17.096 C48.7216671,20.562684 48.7563334,22.7466622 48.739,23.648 C48.7216666,24.5493378 48.4183363,25 47.829,25 C47.4476648,25 47.2050005,24.9306674 47.101,24.792 C46.9969995,24.6533326 46.9276668,24.553667 46.893,24.493 C46.8583332,24.432333 46.8236668,24.3413339 46.789,24.22 C46.7543332,24.0986661 46.7283334,23.9990004 46.711,23.921 C46.6936666,23.8429996 46.6806667,23.7260008 46.672,23.57 C46.6633333,23.4139992 46.6503334,23.2926671 46.633,23.206 C46.6156666,22.9459987 46.607,22.6600016 46.607,22.348 L46.607,22.348 Z M52.873,10.375 C52.1103295,9.96766463 51.295671,9.764 50.429,9.764 C49.562329,9.764 48.9556684,9.84199922 48.609,9.998 C48.5396663,11.0206718 48.505,11.9609957 48.505,12.819 C48.505,13.6770043 48.5396663,14.4526632 48.609,15.146 C49.0770023,15.1980003 49.3976658,15.2413332 49.571,15.276 C50.0216689,15.3280003 50.4073317,15.354 50.728,15.354 C51.0486683,15.354 51.2653328,15.3496667 51.378,15.341 C51.4906672,15.3323333 51.7073317,15.3063335 52.028,15.263 C52.3486683,15.2196664 52.5783326,15.1460005 52.717,15.042 C52.8556674,14.9379995 53.028999,14.7993342 53.237,14.626 C53.445001,14.4526658 53.5923329,14.2533345 53.679,14.028 C53.9043345,13.4039969 54.017,12.7410035 54.017,12.039 C54.017,11.3369965 53.6356705,10.7823354 52.873,10.375 L52.873,10.375 Z M63.221,12.884 C64.4690062,12.884 65.495996,13.481994 66.302,14.678 C67.108004,15.874006 67.511,17.308325 67.511,18.981 C67.511,20.653675 67.0993374,22.0793274 66.276,23.258 C65.4526625,24.4366726 64.3606735,25.026 63,25.026 C61.6393265,25.026 60.5430042,24.4236727 59.711,23.219 C58.8789958,22.0143273 58.463,20.6753407 58.463,19.202 C58.463,17.3126572 58.8443295,15.8046723 59.607,14.678 C60.4216707,13.481994 61.6263254,12.884 63.221,12.884 L63.221,12.884 Z M62.909,15.016 C62.1809964,15.016 61.5830023,15.3973295 61.115,16.16 C60.6469977,16.9226705 60.413,17.7286624 60.413,18.578 C60.413,19.8953399 60.6729974,20.9006632 61.193,21.594 C61.7130026,22.2873368 62.30233,22.634 62.961,22.634 C64.1396726,22.634 64.893665,22.1226718 65.223,21.1 C65.3616674,20.6146642 65.431,20.0080036 65.431,19.28 C65.431,16.4373191 64.5903417,15.016 62.909,15.016 L62.909,15.016 Z M69.344,6.891 C69.5086675,6.69166567 69.7729982,6.592 70.137,6.592 C70.8823371,6.592 71.255,6.8953303 71.255,7.502 C71.255,7.97000234 71.2160004,9.19199012 71.138,11.168 C71.0599996,13.1440099 71.021,14.9119922 71.021,16.472 C71.021,18.0320078 71.0816661,19.2886619 71.203,20.242 C71.411001,21.9060083 71.7056648,22.738 72.087,22.738 C72.4683352,22.738 72.7543324,22.469336 72.945,21.932 C73.0316671,21.723999 73.1703324,21.5376675 73.361,21.373 C73.5516676,21.2083325 73.7943319,21.126 74.089,21.126 C74.6956697,21.126 74.999,21.6373282 74.999,22.66 C74.999,23.2146694 74.700003,23.7649973 74.102,24.311 C73.503997,24.8570027 72.9103363,25.13 72.321,25.13 C71.7316637,25.13 71.2593351,25.0303343 70.904,24.831 C70.5486649,24.6316657 70.2626677,24.3326687 70.046,23.934 C69.8293322,23.5353313 69.6560006,23.1496685 69.526,22.777 C69.3959993,22.4043315 69.3050003,21.949336 69.253,21.412 C69.1489995,20.545329 69.0753335,19.1543429 69.032,17.239 C68.9886664,15.3236571 68.967,13.4950087 68.967,11.753 C68.967,10.0109913 68.9886664,8.81500325 69.032,8.165 C69.0753335,7.51499675 69.1793325,7.09033433 69.344,6.891 L69.344,6.891 Z M76.663,12.858 L77.963,12.884 C78.2576681,12.884 78.4223332,12.8753334 78.457,12.858 L78.457,7.528 C78.4743334,7.23333186 78.6216653,6.98200104 78.899,6.774 C79.1763347,6.56599896 79.4363321,6.462 79.679,6.462 C79.9216679,6.462 80.1166659,6.53999922 80.264,6.696 C80.4113341,6.85200078 80.4763334,7.09466502 80.459,7.424 C80.4416666,7.75333498 80.433,9.55598362 80.433,12.832 L83.475,12.728 C83.9950026,12.728 84.255,13.0313303 84.255,13.638 C84.255,14.0886689 84.120668,14.4266655 83.852,14.652 C83.583332,14.8773345 83.2973348,14.9986666 82.994,15.016 C82.6906651,15.0333334 82.3916681,15.042 82.097,15.042 L80.511,15.016 C80.511,15.7266702 80.5846659,17.1306562 80.732,19.228 C80.8793341,21.3253438 80.9963329,22.6816636 81.083,23.297 C81.1696671,23.9123364 81.1870003,24.3109991 81.135,24.493 C81.0829997,24.6750009 80.9876674,24.8006663 80.849,24.87 C80.6236655,24.9740005 80.3203352,25.026 79.939,25.026 C79.5576648,25.026 79.3323337,24.8180021 79.263,24.402 C78.9163316,22.131322 78.6823339,19.0113532 78.561,15.042 C78.4049992,15.0593334 77.8070052,15.068 76.767,15.068 C75.7269948,15.068 75.207,14.7646697 75.207,14.158 C75.207,13.291329 75.6923285,12.858 76.663,12.858 L76.663,12.858 Z M88.701,12.962 C89.6196713,12.962 90.4949958,13.230664 91.327,13.768 C92.1590042,14.305336 92.575,14.9683294 92.575,15.757 C92.575,16.5456706 92.2370034,17.3083296 91.561,18.045 C90.8849966,18.7816703 89.9836723,19.2279992 88.857,19.384 C88.3716642,19.4533337 87.6436715,19.488 86.673,19.488 C86.8636676,20.9613407 87.2363306,21.9319977 87.791,22.4 C87.9643342,22.5906676 88.1983319,22.686 88.493,22.686 C89.567672,22.686 90.4689964,22.3436701 91.197,21.659 C91.9250036,20.9743299 92.4449984,20.632 92.757,20.632 C92.8956674,20.632 93.1036653,20.7619987 93.381,21.022 C93.6583347,21.2820013 93.797,21.5246655 93.797,21.75 C93.797,22.2006689 93.2510055,22.8506624 92.159,23.7 C91.6736642,24.0986687 91.0886701,24.432332 90.404,24.701 C89.7193299,24.969668 89.0823363,25.104 88.493,25.104 C86.9849925,25.104 85.8756702,24.133343 85.165,22.192 C84.7143311,20.995994 84.489,19.6786739 84.489,18.24 C84.489,16.8013261 84.8269966,15.5620052 85.503,14.522 C86.1790034,13.4819948 87.2449927,12.962 88.701,12.962 L88.701,12.962 Z M88.831,14.756 C88.17233,14.756 87.6090023,15.1286629 87.141,15.874 C86.9676658,16.1340013 86.8030008,16.7233287 86.647,17.642 C89.0736788,17.642 90.287,17.044006 90.287,15.848 C90.287,15.1199964 89.8016715,14.756 88.831,14.756 L88.831,14.756 Z M98.659,21.204 L98.685,23.882 C98.685,24.1940016 98.5420014,24.4799987 98.256,24.74 C97.9699986,25.0000013 97.6883347,25.13 97.411,25.13 C97.0123313,25.13 96.7610005,24.8180031 96.657,24.194 C96.6396666,24.0553326 96.5703339,22.7856787 96.449,20.385 C96.3276661,17.9843213 96.0936684,16.0993402 95.747,14.73 C95.5909992,14.07133 95.513,13.6813339 95.513,13.56 C95.513,12.9879971 95.8596632,12.702 96.553,12.702 C96.8476681,12.702 97.0816658,12.8146655 97.255,13.04 C97.4283342,13.2653345 97.5366664,13.4949988 97.58,13.729 C97.6233335,13.9630012 97.6623332,14.2793313 97.697,14.678 C97.7316668,15.0766687 97.7576666,15.3279995 97.775,15.432 C98.1390018,14.565329 98.6849964,13.9153355 99.413,13.482 C100.141004,13.0486645 100.938329,12.832 101.805,12.832 C103.22634,12.832 103.937,13.1959964 103.937,13.924 C103.937,14.2880018 103.811335,14.5783322 103.56,14.795 C103.308665,15.0116677 103.018335,15.12 102.689,15.12 C101.215659,15.12 100.17567,15.5879953 99.569,16.524 C98.9623303,17.4600047 98.659,19.0199891 98.659,21.204 L98.659,21.204 Z M112.569,12.858 C113.33167,12.858 113.713,13.5079935 113.713,14.808 L113.713,15.25 L113.661,17.07 C113.643667,17.6420029 113.635,18.2053306 113.635,18.76 L114.025,24.636 C114.025,25.0693355 113.583004,25.286 112.699,25.286 L112.322,25.286 C112.122666,25.286 111.984,25.2080008 111.906,25.052 C111.828,24.8959992 111.819333,24.7053345 111.88,24.48 C111.940667,24.2546655 111.919001,24.0033347 111.815,23.726 C111.017663,24.5753376 109.96034,25 108.643,25 C106.198988,25 104.977,23.1106856 104.977,19.332 C104.977,17.2346562 105.371329,15.648672 106.16,14.574 C106.948671,13.499328 108.079659,12.962 109.553,12.962 C110.246337,12.962 110.939663,13.0833321 111.633,13.326 C111.858334,13.0139984 112.170331,12.858 112.569,12.858 L112.569,12.858 Z M109.865,15.224 C108.876995,15.224 108.140336,15.5099971 107.655,16.082 C107.169664,16.6540029 106.927,17.702659 106.927,19.228 C106.927,21.7933462 107.620326,23.076 109.007,23.076 C109.371002,23.076 109.773998,22.911335 110.216,22.582 C110.658002,22.252665 110.965666,21.8800021 111.139,21.464 C111.468335,20.5279953 111.633,19.5053389 111.633,18.396 C111.633,17.2866611 111.498668,16.4806692 111.23,15.978 C110.961332,15.4753308 110.506337,15.224 109.865,15.224 L109.865,15.224 Z M119.615,24.974 C119.025664,24.974 118.479669,24.7746687 117.977,24.376 C117.977,24.376 117.864334,24.2806676 117.639,24.09 L117.639,31.89 C117.534999,32.2366684 117.353001,32.5269988 117.093,32.761 C116.832999,32.9950012 116.555668,33.112 116.261,33.112 C115.810331,33.112 115.585,32.8086697 115.585,32.202 L115.585,14.08 C115.689001,13.6293311 115.814666,13.3086676 115.962,13.118 C116.109334,12.9273324 116.343332,12.832 116.664,12.832 C116.984668,12.832 117.192666,12.9056659 117.288,13.053 C117.383334,13.2003341 117.500333,13.60333 117.639,14.262 C117.708334,13.9153316 117.985664,13.5946681 118.471,13.3 C118.956336,13.0053319 119.606329,12.858 120.421,12.858 C122.189009,12.858 123.445663,13.4993269 124.191,14.782 C124.936337,16.0646731 125.309,17.5769913 125.309,19.319 C125.309,21.0610087 124.802005,22.4389949 123.788,23.453 C122.773995,24.4670051 121.383009,24.974 119.615,24.974 L119.615,24.974 Z M117.639,17.174 L117.639,22.01 C117.743001,22.0620003 117.864333,22.1486661 118.003,22.27 C118.505669,22.7206689 119.051664,22.946 119.641,22.946 C122.033012,22.946 123.229,21.7153456 123.229,19.254 C123.229,17.1566562 122.691672,15.8306694 121.617,15.276 C121.166331,15.0333321 120.61167,14.912 119.953,14.912 C119.311663,14.9986671 118.765669,15.2803309 118.315,15.757 C117.864331,16.233669 117.639,16.7059977 117.639,17.174 L117.639,17.174 Z M130.743,24.974 C130.153664,24.974 129.607669,24.7746687 129.105,24.376 C129.105,24.376 128.992334,24.2806676 128.767,24.09 L128.767,31.89 C128.662999,32.2366684 128.481001,32.5269988 128.221,32.761 C127.960999,32.9950012 127.683668,33.112 127.389,33.112 C126.938331,33.112 126.713,32.8086697 126.713,32.202 L126.713,14.08 C126.817001,13.6293311 126.942666,13.3086676 127.09,13.118 C127.237334,12.9273324 127.471332,12.832 127.792,12.832 C128.112668,12.832 128.320666,12.9056659 128.416,13.053 C128.511334,13.2003341 128.628333,13.60333 128.767,14.262 C128.836334,13.9153316 129.113664,13.5946681 129.599,13.3 C130.084336,13.0053319 130.734329,12.858 131.549,12.858 C133.317009,12.858 134.573663,13.4993269 135.319,14.782 C136.064337,16.0646731 136.437,17.5769913 136.437,19.319 C136.437,21.0610087 135.930005,22.4389949 134.916,23.453 C133.901995,24.4670051 132.511009,24.974 130.743,24.974 L130.743,24.974 Z M128.767,17.174 L128.767,22.01 C128.871001,22.0620003 128.992333,22.1486661 129.131,22.27 C129.633669,22.7206689 130.179664,22.946 130.769,22.946 C133.161012,22.946 134.357,21.7153456 134.357,19.254 C134.357,17.1566562 133.819672,15.8306694 132.745,15.276 C132.294331,15.0333321 131.73967,14.912 131.081,14.912 C130.439663,14.9986671 129.893669,15.2803309 129.443,15.757 C128.992331,16.233669 128.767,16.7059977 128.767,17.174 L128.767,17.174 Z M141.507,12.962 C142.425671,12.962 143.300996,13.230664 144.133,13.768 C144.965004,14.305336 145.381,14.9683294 145.381,15.757 C145.381,16.5456706 145.043003,17.3083296 144.367,18.045 C143.690997,18.7816703 142.789672,19.2279992 141.663,19.384 C141.177664,19.4533337 140.449672,19.488 139.479,19.488 C139.669668,20.9613407 140.042331,21.9319977 140.597,22.4 C140.770334,22.5906676 141.004332,22.686 141.299,22.686 C142.373672,22.686 143.274996,22.3436701 144.003,21.659 C144.731004,20.9743299 145.250998,20.632 145.563,20.632 C145.701667,20.632 145.909665,20.7619987 146.187,21.022 C146.464335,21.2820013 146.603,21.5246655 146.603,21.75 C146.603,22.2006689 146.057005,22.8506624 144.965,23.7 C144.479664,24.0986687 143.89467,24.432332 143.21,24.701 C142.52533,24.969668 141.888336,25.104 141.299,25.104 C139.790992,25.104 138.68167,24.133343 137.971,22.192 C137.520331,20.995994 137.295,19.6786739 137.295,18.24 C137.295,16.8013261 137.632997,15.5620052 138.309,14.522 C138.985003,13.4819948 140.050993,12.962 141.507,12.962 L141.507,12.962 Z M141.637,14.756 C140.97833,14.756 140.415002,15.1286629 139.947,15.874 C139.773666,16.1340013 139.609001,16.7233287 139.453,17.642 C141.879679,17.642 143.093,17.044006 143.093,15.848 C143.093,15.1199964 142.607672,14.756 141.637,14.756 L141.637,14.756 Z M149.099,24.194 L148.813,13.638 C148.813,13.308665 148.925666,13.040001 149.151,12.832 C149.376334,12.623999 149.601666,12.52 149.827,12.52 C150.381669,12.52 150.702333,12.7539977 150.789,13.222 C150.858334,13.6900023 150.893,14.1753308 150.893,14.678 C151.829005,13.4473272 152.998993,12.832 154.403,12.832 C156.552344,12.832 157.627,15.2846421 157.627,20.19 L157.627,22.231 C157.627,23.1410045 157.575001,23.8039979 157.471,24.22 C157.349666,24.7400026 156.977003,25 156.353,25 C155.936998,25 155.729,24.7226694 155.729,24.168 L155.755,22.712 C155.755,20.7013233 155.690001,19.3276703 155.56,18.591 C155.429999,17.8543296 155.304334,17.2693355 155.183,16.836 C154.888332,15.8999953 154.41167,15.432 153.753,15.432 C152.886329,15.432 152.279668,15.7439969 151.933,16.368 C151.551665,17.0440034 151.326334,17.8413287 151.257,18.76 C151.135666,20.3720081 151.075,22.0793243 151.075,23.882 C151.075,24.2286684 150.945001,24.505999 150.685,24.714 C150.424999,24.922001 150.113002,25.026 149.749,25.026 C149.315664,25.026 149.099,24.7486694 149.099,24.194 L149.099,24.194 Z" id="Polterappen-Copy-10" fill="#424749"></path>
                <g id="confetti">
                    <g id="Layer_1">
                        <g id="Group">
                            <g transform="translate(0.000000, 12.856329)">
                                <polygon id="Shape" fill="#FFB819" points="0.0236600567 20.3379881 20.2874561 10.9072371 9.27483286 0.0116793411"></polygon>
                                <ellipse id="Oval" fill="#FFD26C" cx="12.0077054" cy="8.19364627" rx="2.45856091" ry="2.45546829"></ellipse>
                                <path d="M5.23884419,8.87928697 C5.91936544,8.91903295 6.61294051,8.6783842 7.1303796,8.15661642 C8.07805099,7.20126443 8.07814164,5.66457097 7.13726912,4.7083136 L5.23884419,8.87928697 L5.23884419,8.87928697 Z" id="Shape" fill="#FFD26C"></path>
                                <path d="M2.53688385,17.7422772 C2.05470822,18.2285542 1.818017,18.8652141 1.82554108,19.4994295 L5.88645892,17.6093681 C4.91675921,16.7745216 3.45164873,16.8200619 2.53688385,17.7422772 L2.53688385,17.7422772 Z" id="Shape" fill="#FFD26C"></path>
                                <path d="M12.3145609,12.7774708 C11.7313088,13.365512 11.5074901,14.1738311 11.6404759,14.9315396 L15.9449745,12.9282158 C15.8965666,12.870815 15.8458924,12.8148628 15.7915014,12.7610835 C14.8268782,11.8067274 13.2702096,11.8140609 12.3145609,12.7774708 L12.3145609,12.7774708 Z" id="Shape" fill="#FFD26C"></path>
                                <ellipse id="Oval" fill="#FFD26C" cx="6.36165439" cy="13.0782364" rx="2.45856091" ry="2.45546829"></ellipse>
                                <polygon id="Shape" fill="#004D7A" points="8.09572805 2.60232016 17.7047025 12.1092133 20.2874561 10.9072371 9.27483286 0.0116793411"></polygon>
                            </g>
                            <ellipse id="Oval" fill="#00BCB4" cx="11.6033994" cy="7.84770238" rx="1.67678187" ry="1.67467265"></ellipse>
                            <ellipse id="Oval" fill="#00BCB4" cx="24.4333144" cy="21.326839" rx="1.67678187" ry="1.67467265"></ellipse>
                            <ellipse id="Oval" fill="#FFB819" cx="28.0784136" cy="13.8556822" rx="1.67678187" ry="1.67467265"></ellipse>
                            <ellipse id="Oval" fill="#FFB819" cx="15.3293598" cy="1.67467265" rx="1.67678187" ry="1.67467265"></ellipse>
                            <ellipse id="Oval" fill="#D85C72" cx="20.0625496" cy="16.4252278" rx="1.67678187" ry="1.67467265"></ellipse>
                            <ellipse id="Oval" fill="#D85C72" cx="21.0797507" cy="6.76197634" rx="1.67678187" ry="1.67467265"></ellipse>
                            <ellipse id="Oval" fill="#D85C72" cx="29.6779603" cy="7.53082103" rx="1.67678187" ry="1.67467265"></ellipse>
                            <path d="M11.4786629,13.009609 C11.1371785,13.009609 10.8605099,12.7331979 10.8605099,12.3922336 C10.8605099,12.0512693 11.1371785,11.7748582 11.4786629,11.7748582 C13.7791275,11.7748582 15.6508102,9.90562039 15.6508102,7.607959 C15.6508102,4.62945541 18.0770085,2.20630902 21.0592635,2.20630902 C24.0414278,2.20630902 26.4676261,4.62945541 26.4676261,7.607959 C26.4676261,7.94892333 26.1908669,8.22524387 25.8495637,8.22524387 C25.5082606,8.22524387 25.2315014,7.94892333 25.2315014,7.607959 C25.2315014,5.31029762 23.3598187,3.44105982 21.0593541,3.44105982 C18.7587989,3.44105982 16.8872068,5.31029762 16.8872068,7.607959 C16.8870255,10.5864626 14.4607365,13.009609 11.4786629,13.009609 L11.4786629,13.009609 Z" id="Shape" fill="#00BCB4"></path>
                            <path d="M27.672204,19.0162307 C25.3172578,19.0162307 23.4011558,17.1026296 23.4011558,14.7505551 C23.4011558,13.0793229 22.0396601,11.7194492 20.3663229,11.7194492 C18.6928952,11.7194492 17.3313994,13.0792324 17.3313994,14.7505551 C17.3313994,15.0915194 17.0546402,15.36784 16.7134278,15.36784 C16.3719433,15.36784 16.0952748,15.0915194 16.0952748,14.7505551 C16.0952748,12.3984807 18.0112861,10.4848795 20.3663229,10.4848795 C22.7213598,10.4848795 24.6373711,12.3984807 24.6373711,14.7505551 C24.6373711,16.4218779 25.9987762,17.7815705 27.672204,17.7815705 C29.3456317,17.7815705 30.7070368,16.4218779 30.7070368,14.7505551 C30.7070368,14.4095908 30.9838867,14.1332703 31.3252805,14.1332703 C31.6664929,14.1332703 31.9432521,14.4095908 31.9432521,14.7505551 C31.9433428,17.1026296 30.0273314,19.0162307 27.672204,19.0162307 L27.672204,19.0162307 Z" id="Shape" fill="#FFB819"></path>
                        </g>
                    </g>
                </g>
            </g>
        </g>
    </g>
</svg>