<?xml version="1.0" encoding="UTF-8" standalone="no"?>
<svg width="158px" height="34px" viewBox="0 0 158 34" version="1.1" xmlns="http://www.w3.org/2000/svg" xmlns:xlink="http://www.w3.org/1999/xlink">
    <!-- Generator: Sketch 39.1 (31720) - http://www.bohemiancoding.com/sketch -->
    <title>Group 4</title>
    <desc>Created with Sketch.</desc>
    <defs></defs>
    <g id="Page-1" stroke="none" stroke-width="1" fill="none" fill-rule="evenodd">
        <g id="Artboard" transform="translate(-57.000000, -51.000000)">
            <g id="Group-4" transform="translate(57.000000, 49.000000)">
                <text id="Polterappen-Copy-10" font-family="PatrickHand-Regular, Patrick Hand" font-size="26" font-weight="normal" fill="#424749">
                    <tspan x="45.125" y="27">Polterappen</tspan>
                </text>
                <g id="confetti" transform="translate(0.000000, 2.000000)">
                    <g id="Layer_1">
                        <g id="Group">
                            <g transform="translate(0.000000, 12.856329)">
                                <polygon id="Shape" fill="#FFB819" points="0.0236600567 20.3379881 20.2874561 10.9072371 9.27483286 0.0116793411"></polygon>
                                <ellipse id="Oval" fill="#FFD26C" cx="12.0077054" cy="8.19364627" rx="2.45856091" ry="2.45546829"></ellipse>
                                <path d="M5.23884419,8.87928697 C5.91936544,8.91903295 6.61294051,8.6783842 7.1303796,8.15661642 C8.07805099,7.20126443 8.07814164,5.66457097 7.13726912,4.7083136 L5.23884419,8.87928697 L5.23884419,8.87928697 Z" id="Shape" fill="#FFD26C"></path>
                                <path d="M2.53688385,17.7422772 C2.05470822,18.2285542 1.818017,18.8652141 1.82554108,19.4994295 L5.88645892,17.6093681 C4.91675921,16.7745216 3.45164873,16.8200619 2.53688385,17.7422772 L2.53688385,17.7422772 Z" id="Shape" fill="#FFD26C"></path>
                                <path d="M12.3145609,12.7774708 C11.7313088,13.365512 11.5074901,14.1738311 11.6404759,14.9315396 L15.9449745,12.9282158 C15.8965666,12.870815 15.8458924,12.8148628 15.7915014,12.7610835 C14.8268782,11.8067274 13.2702096,11.8140609 12.3145609,12.7774708 L12.3145609,12.7774708 Z" id="Shape" fill="#FFD26C"></path>
                                <ellipse id="Oval" fill="#FFD26C" cx="6.36165439" cy="13.0782364" rx="2.45856091" ry="2.45546829"></ellipse>
                                <polygon id="Shape" fill="#004D7A" points="8.09572805 2.60232016 17.7047025 12.1092133 20.2874561 10.9072371 9.27483286 0.0116793411"></polygon>
                            </g>
                            <ellipse id="Oval" fill="#00BCB4" cx="11.6033994" cy="7.84770238" rx="1.67678187" ry="1.67467265"></ellipse>
                            <ellipse id="Oval" fill="#00BCB4" cx="24.4333144" cy="21.326839" rx="1.67678187" ry="1.67467265"></ellipse>
                            <ellipse id="Oval" fill="#FFB819" cx="28.0784136" cy="13.8556822" rx="1.67678187" ry="1.67467265"></ellipse>
                            <ellipse id="Oval" fill="#FFB819" cx="15.3293598" cy="1.67467265" rx="1.67678187" ry="1.67467265"></ellipse>
                            <ellipse id="Oval" fill="#D85C72" cx="20.0625496" cy="16.4252278" rx="1.67678187" ry="1.67467265"></ellipse>
                            <ellipse id="Oval" fill="#D85C72" cx="21.0797507" cy="6.76197634" rx="1.67678187" ry="1.67467265"></ellipse>
                            <ellipse id="Oval" fill="#D85C72" cx="29.6779603" cy="7.53082103" rx="1.67678187" ry="1.67467265"></ellipse>
                            <path d="M11.4786629,13.009609 C11.1371785,13.009609 10.8605099,12.7331979 10.8605099,12.3922336 C10.8605099,12.0512693 11.1371785,11.7748582 11.4786629,11.7748582 C13.7791275,11.7748582 15.6508102,9.90562039 15.6508102,7.607959 C15.6508102,4.62945541 18.0770085,2.20630902 21.0592635,2.20630902 C24.0414278,2.20630902 26.4676261,4.62945541 26.4676261,7.607959 C26.4676261,7.94892333 26.1908669,8.22524387 25.8495637,8.22524387 C25.5082606,8.22524387 25.2315014,7.94892333 25.2315014,7.607959 C25.2315014,5.31029762 23.3598187,3.44105982 21.0593541,3.44105982 C18.7587989,3.44105982 16.8872068,5.31029762 16.8872068,7.607959 C16.8870255,10.5864626 14.4607365,13.009609 11.4786629,13.009609 L11.4786629,13.009609 Z" id="Shape" fill="#00BCB4"></path>
                            <path d="M27.672204,19.0162307 C25.3172578,19.0162307 23.4011558,17.1026296 23.4011558,14.7505551 C23.4011558,13.0793229 22.0396601,11.7194492 20.3663229,11.7194492 C18.6928952,11.7194492 17.3313994,13.0792324 17.3313994,14.7505551 C17.3313994,15.0915194 17.0546402,15.36784 16.7134278,15.36784 C16.3719433,15.36784 16.0952748,15.0915194 16.0952748,14.7505551 C16.0952748,12.3984807 18.0112861,10.4848795 20.3663229,10.4848795 C22.7213598,10.4848795 24.6373711,12.3984807 24.6373711,14.7505551 C24.6373711,16.4218779 25.9987762,17.7815705 27.672204,17.7815705 C29.3456317,17.7815705 30.7070368,16.4218779 30.7070368,14.7505551 C30.7070368,14.4095908 30.9838867,14.1332703 31.3252805,14.1332703 C31.6664929,14.1332703 31.9432521,14.4095908 31.9432521,14.7505551 C31.9433428,17.1026296 30.0273314,19.0162307 27.672204,19.0162307 L27.672204,19.0162307 Z" id="Shape" fill="#FFB819"></path>
                        </g>
                    </g>
                </g>
            </g>
        </g>
    </g>
</svg>